# xmcd
#
# Track frame offsets: 
#        150
#        11206
#        24333
#        37060
#        54865
#        67022
#        78394
#        89777
#        103597
#        116620
#        129677
#        143105
#        156086
#        170808
#        183850
#        196207
#        210611
#        224844
#        238645
#        250388
#
# Disc length: 3505 seconds
#
# Revision: 0
# Processed by: cddbd v1.5.2PL0 Copyright (c) Steve Scherf et al.
# Submitted via: ExactAudioCopy v0.99pb5
#
DISCID=2a0daf14
DTITLE=Various Artist - Voodoo Blues - The Devil Within CD1
DYEAR=2010
DGENRE=Blues
TTITLE0=Screamin' Jay Hawkins - I Put A Spell On You
TTITLE1=Howlin' Wolf - Evil (Is Going On)
TTITLE2=Sonny Boy Williamson - I Been Dealing With The Devil
TTITLE3=Champion Jack Dupree - Bad Blood
TTITLE4=John Lee Hooker - Burnin' Hell
TTITLE5=Jimmy Reed - I Know It's A Sin
TTITLE6=Robert Johnson - Me And The Devil Blues
TTITLE7=Washboard Sam - She Belongs To The Devil
TTITLE8=Otis Spann - Must Have Been The Devil
TTITLE9=Elmore James - Sinful Woman
TTITLE10=Skip James - Devil Got My Woman
TTITLE11=Casey Bill Weldon - I've Been Tricked
TTITLE12=Josh Wihte - Black And Evil Blues
TTITLE13=John Brim - Drinking Woman
TTITLE14=Johnny "Guitar" Watson - Gettin' Drunk
TTITLE15=Doctor Clayton - Root Doctor
TTITLE16=Bessie Smith - Sinful Blues
TTITLE17=Memphis Minnie - Hoodoo Lady
TTITLE18=T-Bone Walker - Evil Hearted Woman
TTITLE19=Sister Rosetta Thorpe - The Devil Has Thrown Him Down
EXTD=
EXTT0=
EXTT1=
EXTT2=
EXTT3=
EXTT4=
EXTT5=
EXTT6=
EXTT7=
EXTT8=
EXTT9=
EXTT10=
EXTT11=
EXTT12=
EXTT13=
EXTT14=
EXTT15=
EXTT16=
EXTT17=
EXTT18=
EXTT19=
PLAYORDER=
